<svg version="1.1" id="Layer_1" xmlns:x="ns_extend;" xmlns:i="ns_ai;" xmlns:graph="ns_graphs;" xmlns="http://www.w3.org/2000/svg" xmlns:xlink="http://www.w3.org/1999/xlink" x="0px" y="0px" viewBox="0 0 227.6 42" style="enable-background:new 0 0 227.6 42;" xml:space="preserve">
 <style type="text/css">
  .st0{fill:#0066F5;}
 </style>
 <metadata>
  <sfw xmlns="ns_sfw;">
   <slices>
   </slices>
   <sliceSourceBounds bottomLeftOrigin="true" height="42" width="227.6" x="29.2" y="189">
   </sliceSourceBounds>
  </sfw>
 </metadata>
 <g>
  <path class="st0" d="M21,0H9.2l0,0L7.6,3H21c9.9,0,18,8.1,18,18c0,9.9-8.1,18-18,18c-9.9,0-18-8.1-18-18c0-1.9,0.3-3.8,0.9-5.5h3.4
		c-2.4,6-0.6,12.9,4.4,17c5,4.1,12.2,4.4,17.5,0.8c5.4-3.6,7.8-10.4,5.9-16.6C33.2,10.5,27.5,6.2,21,6.2H5.8l-1.6,3H21
		c5.3,0,9.9,3.5,11.3,8.6c1.4,5.1-0.8,10.5-5.3,13.2c-4.5,2.7-10.3,2.1-14.2-1.6c-3.8-3.6-4.8-9.4-2.3-14.1h3.9
		c-5.9,7,1.8,17.1,10.1,13.3c8.3-3.8,5.6-16.3-3.6-16.3H2.4l-1.6,3C0.2,17.3,0,19.1,0,21c0,11.6,9.4,21,21,21c11.6,0,21-9.4,21-21
		C42,9.4,32.6,0,21,0L21,0z M21,15.5c3.1,0,5.6,2.4,5.6,5.5c0,3.1-2.5,5.6-5.6,5.5C13.7,26.4,13.7,15.6,21,15.5L21,15.5z M51.2,21.4
		c0-5.8,3.9-9.9,9.8-9.9c3.6,0,6.6,1.6,8.1,4.3l-3.4,2.4c-1.1-1.7-2.7-2.5-4.6-2.5c-3.2,0-5.3,2.2-5.3,5.8c0,3.5,2.1,5.8,5.3,5.8
		c1.9,0,3.5-0.9,4.6-2.5l3.4,2.4c-1.6,2.7-4.5,4.2-8.1,4.2C55.1,31.3,51.2,27.2,51.2,21.4L51.2,21.4z M69.8,21.4
		c0-5.5,3.9-9.9,9.9-9.9c6.1,0,9.9,4.5,9.9,9.9c0,5.4-3.8,9.9-9.9,9.9C73.7,31.3,69.8,26.9,69.8,21.4L69.8,21.4z M85,21.4
		c0-3.4-2-5.8-5.3-5.8c-3.2,0-5.3,2.4-5.3,5.8c0,3.4,2,5.8,5.3,5.8C82.9,27.2,85,24.8,85,21.4L85,21.4z M119.1,12l-5.8,18.8h-4.9
		l-4.1-13.3l-4.1,13.3h-4.9L89.7,12h4.5l3.9,13.6l4.2-13.6h4.3l4.2,13.6l3.9-13.6H119.1L119.1,12z M182.4,12l-5.8,18.8h-4.9
		l-4.1-13.3l-4.1,13.3h-4.9L153,12h4.5l3.9,13.5l4.2-13.6h4.3l4.2,13.6l3.9-13.6H182.4z M132.6,12v4.2c-0.7-0.1-1.4-0.2-2.1-0.2
		c-3.3,0-5,1.7-5,5.6v9.3H121V12h4.4v3.1c0.9-2.2,3-3.5,5.5-3.5C131.5,11.7,132.1,11.8,132.6,12L132.6,12z M151.3,12v16.9
		c0,6.3-3.5,9.8-9.7,9.8c-3.2,0-6.2-1-7.9-2.6l2-3.3c1.6,1.3,3.7,1.9,5.6,1.9c3.5,0,5.5-2,5.5-5.8v-1.6c-1.1,2.1-3.4,3.3-6.1,3.3
		c-4,0-6.5-2.5-6.5-7.1V12h4.5v10.4c0,2.9,1.2,4.1,3.5,4.1c2.7,0,4.5-1.7,4.5-4.4V12H151.3z M183.6,6.1c0-1.6,1.1-2.8,2.9-2.8
		c1.7,0,2.8,1.2,2.8,2.8c0,1.6-1.1,2.8-2.8,2.8C184.8,8.9,183.6,7.7,183.6,6.1L183.6,6.1z M184.2,12h4.5v18.8h-4.5V12z M191,27.8
		l2.4-2.8c1.5,1.6,3.8,2.6,6.2,2.6c2.1,0,3.3-0.8,3.3-2c0-1-0.7-1.6-2.6-2.1l-3.1-0.7c-3.9-0.9-5.6-2.7-5.6-5.3
		c0-3.5,2.9-5.9,7.8-5.9c3.3,0,6.1,1.1,7.7,3l-2.4,2.9c-1.6-1.4-3.5-2.1-5.4-2.1c-2.1,0-3.1,0.8-3.1,1.9c0,0.9,0.6,1.4,2.6,1.9
		l3.2,0.8c4,0.9,5.4,2.7,5.4,5.3c0,3.7-2.9,6.1-7.9,6.1C195.9,31.3,192.7,29.9,191,27.8L191,27.8z M227.5,22.8h-14
		c0.5,3,2.5,4.6,5.5,4.6c2.1,0,3.9-0.8,5.2-2.4l2.7,2.7c-1.8,2.3-4.6,3.6-8.1,3.6c-6,0-10-3.9-10-9.8c0-5.8,3.8-10,9.5-10
		c5.5,0,9.2,3.8,9.2,9.5C227.6,21.6,227.5,22.2,227.5,22.8L227.5,22.8z M213.5,19.7h9.6c-0.2-2.8-1.9-4.3-4.6-4.3
		C215.7,15.4,213.9,17,213.5,19.7L213.5,19.7z M213.5,19.7">
  </path>
 </g>
</svg>